<?xml version="1.0" encoding="UTF-8"?>
<svg width="108px" height="32px" viewBox="0 0 108 32" version="1.1" xmlns="http://www.w3.org/2000/svg" xmlns:xlink="http://www.w3.org/1999/xlink">
    <title>Logo</title>
    <defs>
        <path d="M38.8136493,6.96786581 C43.2139966,6.96786581 47.4020928,10.4432996 47.4020928,16.7891917 L47.4020928,16.8600521 C47.4020928,23.2059443 43.284747,26.6809684 38.8136493,26.6809684 C35.9637108,26.6809684 34.2034906,25.3694376 32.9360832,23.8449162 L32.9360832,32 L27.5871118,32 L27.5871118,7.32216754 L32.9360832,7.32216754 L32.9360832,10.0529533 C34.2376459,8.27980621 36.0340546,6.96786581 38.8136493,6.96786581 Z M57.9895187,6.96786581 C64.2891473,6.96786581 67.1756808,11.8969607 67.1756808,17.2852142 L67.1756808,17.3564841 C67.1756808,17.8893703 67.1415255,18.2084467 67.1049305,18.7044691 L53.9770786,18.7044691 C54.5056733,21.150175 56.1951431,22.4272997 58.5892704,22.4272997 C60.383646,22.4272997 61.6856153,21.8600073 63.1632407,20.4772065 L66.2250237,23.2059443 C64.4668365,25.4038438 61.9316151,26.7522384 58.51852,26.7522384 C52.8503587,26.7522384 48.6622625,22.746376 48.6622625,16.931322 L48.6622625,16.8600521 C48.6622625,11.4353444 52.4994532,6.96786581 57.9895187,6.96786581 Z M99.0153774,7.11036473 C104.859195,7.11036473 107.428571,10.1585884 107.428571,15.3006739 L107.428571,26.3270353 L102.253223,26.3270353 L102.253223,24.2696277 C100.951254,25.7236984 99.1568781,26.6809275 96.553346,26.6809275 C92.9967172,26.6809275 90.0760283,24.6251582 90.0760283,20.8658735 L90.0760283,20.7946036 C90.0760283,16.6466109 93.2085616,14.7333815 97.6792527,14.7333815 C99.5789406,14.7333815 100.951254,15.0524579 102.289411,15.5120262 L102.289411,15.1929498 C102.289411,12.9602345 100.917098,11.7179256 98.2424093,11.7179256 C96.2000008,11.7179256 94.7569374,12.1082719 93.0333122,12.7468343 L91.6947478,8.63365738 C93.7717183,7.71247288 95.8120937,7.11036473 99.0153774,7.11036473 Z M15.5565411,1.33012653 L26.1150163,26.3270353 L20.448888,26.3270353 L18.1970748,20.7597878 L7.77725401,20.7597878 L5.52503412,26.3270353 L-2.80664381e-13,26.3270353 L10.5588818,1.33012653 L15.5565411,1.33012653 Z M80.7560504,6.96794773 L80.7560504,12.6044173 L80.4738622,12.6044173 C76.9192664,12.6044173 74.7373902,14.7679106 74.7373902,19.3062496 L74.7373902,26.3271582 L69.3880122,26.3271582 L69.3880122,7.32224946 L74.7373902,7.32224946 L74.7373902,11.1507562 C75.8291415,8.52769454 77.5873287,6.82622703 80.7560504,6.96794773 Z M87.9322516,7.3222085 L87.9322516,26.3271173 L82.5832802,26.3271173 L82.5832802,7.3222085 L87.9322516,7.3222085 Z M98.9454402,17.9585513 C96.6582518,17.9585513 95.2493437,18.8813742 95.2493437,20.5832513 L95.2493437,20.6545213 C95.2493437,22.1077728 96.4460007,22.9580969 98.171659,22.9580969 C100.671099,22.9580969 102.360162,21.5757058 102.360162,19.6256126 L102.360162,18.667974 C101.444067,18.2428119 100.247003,17.9585513 98.9454402,17.9585513 Z M37.4413362,11.5410205 C34.9423033,11.5410205 32.8653328,13.6332439 32.8653328,16.7891917 L32.8653328,16.8600521 C32.8653328,20.0159999 34.9423033,22.1078137 37.4413362,22.1078137 C39.9403692,22.1078137 42.0514949,20.0504061 42.0514949,16.8600521 L42.0514949,16.7891917 C42.0514949,13.6332439 39.9403692,11.5410205 37.4413362,11.5410205 Z M12.9867578,7.88941895 L9.71516339,15.9392362 L16.2611984,15.9392362 L12.9867578,7.88941895 Z M57.9895187,11.2932141 C55.7734872,11.2932141 54.3300172,12.8890055 53.9063282,15.3351211 L61.9678035,15.3351211 C61.6510533,12.9234117 60.2421452,11.2932141 57.9895187,11.2932141 Z M85.2574,2.17603713e-14 C86.8126881,2.17603713e-14 88.0731831,1.27016147 88.0731831,2.83646185 C88.0731831,4.40317182 86.8126881,5.67292369 85.2574,5.67292369 C83.7025184,5.67292369 82.4416168,4.40317182 82.4416168,2.83646185 C82.4416168,1.27016147 83.7025184,2.17603713e-14 85.2574,2.17603713e-14 Z" id="path-1"></path>
    </defs>
    <g id="Symbols" stroke="none" stroke-width="1" fill="none" fill-rule="evenodd">
        <g id="Navigation-/-Main-Menu-/-Desktop" transform="translate(-135.000000, -32.000000)">
            <g id="Group" transform="translate(135.000000, 32.000000)">
                <mask id="mask-2" fill="white">
                    <use xlink:href="#path-1"></use>
                </mask>
                <use id="Logo" fill="#002F67" xlink:href="#path-1"></use>
                <g mask="url(#mask-2)" fill="#002F67" id="Colors/Core/Primary">
                    <g>
                        <rect id="Rectangle" x="0" y="0" width="108" height="32"></rect>
                    </g>
                </g>
            </g>
        </g>
    </g>
</svg>